<svg width="2940" height="567" viewBox="0 0 2940 567" fill="none" xmlns="http://www.w3.org/2000/svg">
<path d="M221.583 452.973C179.626 452.973 141.703 443.694 107.815 425.136C74.3294 406.578 47.9044 380.96 28.5395 348.282C9.57806 315.2 0.0973329 278.286 0.0973329 237.539C0.0973329 196.792 9.57806 160.079 28.5395 127.401C47.9044 94.3194 74.5311 68.4996 108.42 49.9416C142.308 31.3836 180.231 22.1046 222.188 22.1046C253.656 22.1046 282.704 27.3492 309.33 37.8385C335.957 48.3278 358.549 63.6584 377.107 83.8301L348.665 112.272C315.584 78.7872 273.828 62.0446 223.399 62.0446C189.914 62.0446 159.454 69.7099 132.021 85.0404C104.587 100.371 83.0032 121.35 67.2693 147.976C51.9387 174.603 44.2735 204.457 44.2735 237.539C44.2735 270.621 51.9387 300.475 67.2693 327.102C83.0032 353.728 104.587 374.707 132.021 390.037C159.454 405.368 189.914 413.033 223.399 413.033C274.232 413.033 315.987 396.089 348.665 362.2L377.107 390.643C358.549 410.814 335.755 426.347 308.725 437.239C282.098 447.729 253.051 452.973 221.583 452.973ZM579.418 452.368C548.756 452.368 521.121 445.51 496.512 431.793C471.902 417.673 452.537 398.308 438.417 373.698C424.297 349.089 417.237 321.252 417.237 290.187C417.237 259.123 424.297 231.286 438.417 206.676C452.537 182.067 471.902 162.903 496.512 149.187C521.121 135.47 548.756 128.611 579.418 128.611C610.079 128.611 637.714 135.47 662.323 149.187C686.933 162.903 706.096 182.067 719.813 206.676C733.933 231.286 740.993 259.123 740.993 290.187C740.993 321.252 733.933 349.089 719.813 373.698C706.096 398.308 686.933 417.673 662.323 431.793C637.714 445.51 610.079 452.368 579.418 452.368ZM579.418 414.243C602.01 414.243 622.182 409.201 639.933 399.115C658.087 388.625 672.208 373.9 682.293 354.939C692.379 335.977 697.422 314.393 697.422 290.187C697.422 265.981 692.379 244.397 682.293 225.436C672.208 206.474 658.087 191.951 639.933 181.865C622.182 171.376 602.01 166.131 579.418 166.131C556.825 166.131 536.452 171.376 518.297 181.865C500.546 191.951 486.426 206.474 475.936 225.436C465.851 244.397 460.808 265.981 460.808 290.187C460.808 314.393 465.851 335.977 475.936 354.939C486.426 373.9 500.546 388.625 518.297 399.115C536.452 409.201 556.825 414.243 579.418 414.243ZM1225.69 128.611C1265.63 128.611 1296.9 140.109 1319.49 163.105C1342.49 186.101 1353.98 219.989 1353.98 264.771V449.342H1311.02V269.007C1311.02 235.925 1302.95 210.71 1286.81 193.363C1271.08 176.015 1248.69 167.341 1219.64 167.341C1186.56 167.341 1160.54 177.629 1141.58 198.204C1122.61 218.376 1113.13 246.414 1113.13 282.32V449.342H1070.17V269.007C1070.17 235.925 1062.1 210.71 1045.96 193.363C1030.23 176.015 1007.64 167.341 978.185 167.341C945.507 167.341 919.485 177.629 900.12 198.204C881.159 218.376 871.678 246.414 871.678 282.32V449.342H828.712V131.032H869.862V189.127C881.159 169.762 896.893 154.835 917.064 144.345C937.236 133.856 960.434 128.611 986.657 128.611C1013.28 128.611 1036.28 134.26 1055.64 145.556C1075.41 156.852 1090.14 173.594 1099.82 195.783C1111.52 174.805 1128.26 158.466 1150.05 146.766C1172.24 134.663 1197.45 128.611 1225.69 128.611ZM1634.5 128.611C1664.36 128.611 1691.39 135.47 1715.59 149.187C1739.8 162.5 1758.76 181.461 1772.48 206.071C1786.19 230.681 1793.05 258.719 1793.05 290.187C1793.05 322.059 1786.19 350.299 1772.48 374.909C1758.76 399.518 1739.8 418.681 1715.59 432.398C1691.79 445.711 1664.76 452.368 1634.5 452.368C1608.68 452.368 1585.28 447.123 1564.3 436.634C1543.73 425.741 1526.78 410.007 1513.47 389.432V566.742H1470.5V131.032H1511.66V193.968C1524.57 172.989 1541.51 156.852 1562.49 145.556C1583.87 134.26 1607.87 128.611 1634.5 128.611ZM1631.48 414.243C1653.66 414.243 1673.84 409.201 1691.99 399.115C1710.15 388.625 1724.27 373.9 1734.35 354.939C1744.84 335.977 1750.09 314.393 1750.09 290.187C1750.09 265.981 1744.84 244.599 1734.35 226.041C1724.27 207.08 1710.15 192.354 1691.99 181.865C1673.84 171.376 1653.66 166.131 1631.48 166.131C1608.88 166.131 1588.51 171.376 1570.36 181.865C1552.6 192.354 1538.48 207.08 1527.99 226.041C1517.91 244.599 1512.87 265.981 1512.87 290.187C1512.87 314.393 1517.91 335.977 1527.99 354.939C1538.48 373.9 1552.6 388.625 1570.36 399.115C1588.51 409.201 1608.88 414.243 1631.48 414.243ZM1970.2 452.368C1941.56 452.368 1919.37 444.299 1903.63 428.162C1888.3 412.025 1880.64 389.634 1880.64 360.99V0.319054H1923.6V357.359C1923.6 376.321 1928.04 390.844 1936.92 400.93C1945.79 410.613 1959.11 415.454 1976.86 415.454C1988.15 415.454 1997.84 413.638 2005.9 410.007L2008.93 445.711C1996.42 450.149 1983.51 452.368 1970.2 452.368ZM2197.63 414.243C2217.4 414.243 2235.56 410.814 2252.1 403.956C2269.04 396.694 2283.36 386.205 2295.06 372.488L2319.27 400.325C2305.15 417.269 2287.6 430.179 2266.62 439.055C2245.64 447.93 2222.44 452.368 2197.03 452.368C2164.35 452.368 2135.3 445.51 2109.89 431.793C2084.47 417.673 2064.7 398.308 2050.58 373.698C2036.46 349.089 2029.4 321.252 2029.4 290.187C2029.4 259.123 2036.06 231.286 2049.37 206.676C2063.09 182.067 2081.85 162.903 2105.65 149.187C2129.45 135.47 2156.48 128.611 2186.74 128.611C2214.98 128.611 2240.4 135.066 2262.99 147.976C2285.99 160.886 2304.14 178.839 2317.45 201.835C2331.17 224.831 2338.43 251.054 2339.24 280.505L2077.81 331.338C2085.88 357.157 2100.41 377.531 2121.38 392.458C2142.77 406.982 2168.18 414.243 2197.63 414.243ZM2186.74 165.526C2164.55 165.526 2144.58 170.77 2126.83 181.26C2109.48 191.346 2095.77 205.668 2085.68 224.226C2076 242.38 2071.16 263.359 2071.16 287.161C2071.16 293.213 2071.36 297.651 2071.76 300.475L2296.27 256.904C2291.43 230.277 2279.13 208.492 2259.36 191.547C2239.59 174.2 2215.38 165.526 2186.74 165.526ZM2089.92 29.9715H2276.3V58.4137H2089.92V29.9715ZM2467.84 193.363C2477.93 171.981 2492.86 155.843 2512.62 144.951C2532.8 134.058 2557.61 128.611 2587.06 128.611V170.367L2576.77 169.762C2543.29 169.762 2517.06 180.049 2498.1 200.625C2479.14 221.2 2469.66 250.045 2469.66 287.161V449.342H2426.69V131.032H2467.84V193.363ZM2798.06 414.243C2817.83 414.243 2835.98 410.814 2852.52 403.956C2869.47 396.694 2883.79 386.205 2895.49 372.488L2919.69 400.325C2905.57 417.269 2888.02 430.179 2867.05 439.055C2846.07 447.93 2822.87 452.368 2797.45 452.368C2764.78 452.368 2735.73 445.51 2710.31 431.793C2684.89 417.673 2665.13 398.308 2651.01 373.698C2636.89 349.089 2629.83 321.252 2629.83 290.187C2629.83 259.123 2636.48 231.286 2649.8 206.676C2663.51 182.067 2682.27 162.903 2706.08 149.187C2729.88 135.47 2756.91 128.611 2787.17 128.611C2815.41 128.611 2840.82 135.066 2863.41 147.976C2886.41 160.886 2904.57 178.839 2917.88 201.835C2931.6 224.831 2938.86 251.054 2939.66 280.505L2678.24 331.338C2686.31 357.157 2700.83 377.531 2721.81 392.458C2743.19 406.982 2768.61 414.243 2798.06 414.243ZM2787.17 165.526C2764.98 165.526 2745.01 170.77 2727.26 181.26C2709.91 191.346 2696.19 205.668 2686.11 224.226C2676.42 242.38 2671.58 263.359 2671.58 287.161C2671.58 293.213 2671.78 297.651 2672.19 300.475L2896.7 256.904C2891.86 230.277 2879.55 208.492 2859.78 191.547C2840.02 174.2 2815.81 165.526 2787.17 165.526Z" fill="#484139"/>
</svg>
