<?xml version="1.0" encoding="UTF-8"?>
<svg xmlns="http://www.w3.org/2000/svg" xmlns:xlink="http://www.w3.org/1999/xlink" width="878px" height="878px" viewBox="0 0 878 878" version="1.1">
<g id="surface1">
<path style=" stroke:none;fill-rule:nonzero;fill:rgb(28.235295%,25.490198%,22.352941%);fill-opacity:1;" d="M 578.226562 37.472656 C 555.78125 48.453125 524.519531 58.984375 487.148438 58.984375 C 478.855469 58.984375 470.1875 58.464844 461.25 57.300781 C 420.332031 51.980469 388.695312 35.269531 366.644531 19.023438 C 380.347656 16.746094 394.304688 15.191406 408.460938 14.347656 C 424.125 22.140625 442.902344 28.714844 464.628906 31.507812 C 492.363281 35.070312 517.09375 31.632812 537.507812 25.523438 C 551.335938 28.765625 564.972656 32.796875 578.226562 37.472656 Z M 578.226562 37.472656 "/>
<path style=" stroke:none;fill-rule:nonzero;fill:rgb(28.235295%,25.490198%,22.352941%);fill-opacity:1;" d="M 669.828125 82.304688 C 644.378906 96.726562 618.351562 109.65625 591.859375 121.03125 C 540.976562 142.796875 507.164062 157.359375 469.792969 157.359375 C 462.9375 157.359375 455.960938 156.839844 448.710938 155.871094 C 398.605469 148.722656 363.101562 120.65625 341.914062 103.890625 C 319.269531 86.015625 299.703125 64.96875 283.390625 41.179688 C 291.804688 37.992188 300.421875 35.070312 309.089844 32.347656 C 323.046875 51.585938 339.484375 68.746094 358.15625 83.488281 C 378.515625 99.664062 409.304688 123.96875 452.433594 130.078125 C 490.152344 135.46875 519.25 123.84375 581.480469 97.136719 C 602.613281 88.039062 623.496094 77.972656 643.980469 66.867188 C 652.792969 71.667969 661.410156 76.878906 669.828125 82.324219 Z M 669.828125 82.304688 "/>
<path style=" stroke:none;fill-rule:nonzero;fill:rgb(28.235295%,25.490198%,22.352941%);fill-opacity:1;" d="M 727.164062 126.691406 C 691.335938 155.082031 653.117188 180.429688 612.992188 202.265625 C 541.285156 241.382812 489.289062 269.773438 436.824219 269.773438 C 424.558594 269.773438 412.292969 268.214844 399.703125 264.902344 C 344.628906 250.285156 312.722656 209.214844 268.550781 152.359375 C 249.234375 127.410156 232.148438 100.773438 217.472656 72.757812 C 224.972656 68.335938 232.617188 64.125 240.367188 60.148438 C 254.324219 87.054688 270.710938 112.597656 289.234375 136.4375 C 330.207031 189.261719 359.898438 227.464844 406.355469 239.753906 C 462.667969 254.640625 517.472656 224.742188 600.402344 179.515625 C 637.792969 159.113281 673.550781 135.59375 707.074219 109.335938 C 713.980469 114.851562 720.636719 120.636719 727.164062 126.691406 Z M 727.164062 126.691406 "/>
<path style=" stroke:none;fill-rule:nonzero;fill:rgb(28.235295%,25.490198%,22.352941%);fill-opacity:1;" d="M 793.78125 204.214844 C 727.882812 248.65625 660.023438 289.28125 591.195312 325.410156 C 516.03125 364.976562 474.792969 380.382812 437.613281 380.382812 C 428.082031 380.382812 418.890625 379.414062 409.359375 377.515625 C 348.945312 365.621094 312.203125 323.511719 261.320312 265.226562 C 221.644531 219.746094 187.328125 169.054688 159.074219 114.011719 C 165.851562 108.296875 172.832031 102.761719 179.953125 97.566406 C 207.6875 152.46875 241.609375 203.035156 281.015625 248.191406 C 333.207031 307.964844 365.1875 342.285156 414.449219 352.027344 C 454.054688 359.820312 490.976562 348.714844 579 302.445312 C 646.789062 266.835938 713.730469 226.804688 778.65625 183.007812 C 783.945312 189.90625 788.964844 196.980469 793.800781 204.199219 Z M 793.78125 204.214844 "/>
<path style=" stroke:none;fill-rule:nonzero;fill:rgb(28.235295%,25.490198%,22.352941%);fill-opacity:1;" d="M 499.792969 555.8125 C 496.195312 584.671875 499.269531 616.105469 525.292969 683.5625 C 545.582031 736.136719 571.230469 787.597656 601.824219 837.035156 C 593.675781 840.472656 585.4375 843.589844 577.019531 846.527344 C 546.75 797.019531 521.175781 745.484375 500.886719 692.914062 C 472.957031 620.386719 469.828125 585.496094 473.875 552.625 C 480.457031 498.765625 505.78125 461.917969 519.359375 442.160156 C 555.1875 389.984375 596.410156 364.191406 721.425781 290.425781 C 752.019531 272.371094 782.828125 254.300781 813.421875 236.496094 C 817.667969 244.089844 821.570312 251.753906 825.292969 259.617188 C 795.148438 277.226562 764.878906 294.960938 734.738281 312.765625 C 610.835938 385.863281 573.710938 409.058594 540.886719 456.761719 C 528.550781 474.761719 505.582031 508.148438 499.792969 555.796875 Z M 499.792969 555.8125 "/>
<path style=" stroke:none;fill-rule:nonzero;fill:rgb(28.235295%,25.490198%,22.352941%);fill-opacity:1;" d="M 847.8125 318.046875 C 813.296875 335.925781 780.148438 356.003906 748.835938 377.964844 C 695.007812 415.652344 656.195312 442.949219 625.652344 493.105469 C 613.261719 513.433594 592.507812 547.554688 588.855469 595.257812 C 585.007812 645.480469 602.363281 683.761719 626.375 736.707031 C 637.003906 760.226562 649.414062 783.171875 663.425781 805.332031 C 656.050781 809.878906 648.550781 814.304688 640.90625 818.386719 L 640.832031 818.386719 C 626.410156 795.515625 613.621094 771.796875 602.597656 747.492188 C 577.9375 693.039062 558.425781 650.15625 562.792969 593.304688 C 566.914062 539.441406 590.582031 500.519531 603.316406 479.597656 C 636.660156 424.824219 679.519531 394.730469 733.800781 356.71875 C 767.148438 333.328125 802.507812 312.011719 839.375 293.113281 C 842.453125 301.300781 845.257812 309.613281 847.792969 318.066406 Z M 847.8125 318.046875 "/>
<path style=" stroke:none;fill-rule:nonzero;fill:rgb(28.235295%,25.490198%,22.352941%);fill-opacity:1;" d="M 859.484375 366.914062 C 835.601562 381.082031 812.777344 397.128906 791.425781 414.808594 C 744.574219 453.535156 707.578125 484.148438 691.929688 534.894531 C 680.511719 572.058594 685.472656 603.121094 692.378906 646.144531 C 698.515625 684.621094 709.738281 722.164062 725.851562 758.097656 C 719.195312 764.203125 712.273438 770.042969 705.242188 775.703125 C 686.445312 735.472656 673.460938 693.433594 666.605469 650.230469 C 659.429688 605.519531 653.820312 570.179688 667.003906 527.28125 C 684.878906 469.066406 726.5 434.691406 774.71875 394.855469 C 799.449219 374.382812 825.871094 356.058594 853.730469 340.152344 C 855.941406 348.984375 857.828125 357.886719 859.464844 366.929688 Z M 859.484375 366.914062 "/>
<path style=" stroke:none;fill-rule:nonzero;fill:rgb(28.235295%,25.490198%,22.352941%);fill-opacity:1;" d="M 866.011719 440.011719 C 851.660156 448.394531 836.839844 459.964844 824.324219 475.945312 C 792.6875 516.300781 792.542969 562.621094 792.488281 603.496094 C 792.417969 625.976562 794.773438 648.402344 799.59375 670.488281 C 793.386719 680.230469 786.875 689.726562 779.878906 698.878906 C 770.816406 667.550781 766.300781 635.59375 766.375 603.496094 C 766.445312 560.613281 766.570312 507.324219 803.691406 459.964844 C 819.609375 439.691406 840.417969 423.066406 864.898438 411.101562 C 865.617188 420.648438 865.941406 430.269531 866.011719 440.011719 Z M 866.011719 440.011719 "/>
<path style=" stroke:none;fill-rule:nonzero;fill:rgb(28.235295%,25.490198%,22.352941%);fill-opacity:1;" d="M 252.578125 466.003906 C 249.054688 476.265625 238.226562 507.59375 172.453125 558.214844 C 135.207031 586.800781 94.089844 611.109375 49.792969 630.597656 C 45.945312 622.859375 42.347656 614.996094 38.964844 607.007812 C 81.375 588.359375 120.851562 565.039062 156.464844 537.617188 C 195.996094 507.199219 220.078125 480.296875 227.902344 457.566406 C 238.929688 425.539062 232.796875 396.039062 227.453125 369.976562 C 219.304688 330.660156 204.484375 301.230469 164.035156 232.734375 C 148.640625 206.671875 132.851562 180.554688 116.804688 154.6875 C 122.742188 148.0625 129 141.558594 135.476562 135.328125 C 152.832031 163.199219 169.917969 191.410156 186.554688 219.53125 C 228.640625 290.820312 244.164062 321.808594 253.046875 364.691406 C 258.785156 392.5625 265.960938 427.257812 252.597656 465.984375 Z M 252.578125 466.003906 "/>
<path style=" stroke:none;fill-rule:nonzero;fill:rgb(28.235295%,25.490198%,22.352941%);fill-opacity:1;" d="M 162.992188 422.53125 C 152.6875 455.542969 131.160156 475.15625 108.316406 495.953125 C 82.742188 519.148438 53.121094 537.597656 19.972656 550.925781 C 17.6875 542.46875 15.726562 533.960938 14.035156 525.328125 C 42.742188 513.238281 68.390625 496.9375 90.691406 476.730469 C 112.542969 456.847656 129.847656 441.121094 138.066406 414.808594 C 146.015625 389.140625 138.066406 360.554688 122.078125 303.558594 C 110.332031 261.589844 96.574219 228.378906 87.4375 206.472656 C 86.070312 203.160156 84.703125 199.917969 83.261719 196.605469 C 88.945312 188.417969 94.9375 180.484375 101.265625 172.761719 C 104.863281 180.625 108.246094 188.542969 111.574219 196.550781 C 120.90625 219.101562 134.988281 253.082031 147.203125 296.625 C 164.558594 358.492188 173.226562 389.480469 162.992188 422.546875 Z M 162.992188 422.53125 "/>
<path style=" stroke:none;fill-rule:nonzero;fill:rgb(28.235295%,25.490198%,22.352941%);fill-opacity:1;" d="M 70.082031 381.207031 C 56.375 421.957031 27.417969 447.875 6.339844 462.042969 C 5.945312 455.34375 5.816406 448.59375 5.816406 441.765625 C 5.816406 437.738281 5.890625 433.707031 6.015625 429.675781 C 20.890625 416.871094 36.808594 398.292969 45.351562 372.949219 C 56.304688 340.257812 50.042969 310.953125 44.953125 287.363281 C 43.839844 282.097656 42.542969 276.976562 40.980469 271.835938 C 45.871094 260.585938 51.230469 249.605469 57.09375 238.894531 C 62.832031 252.742188 67.347656 267.089844 70.476562 281.917969 C 75.890625 307.195312 83.335938 341.765625 70.082031 381.207031 Z M 70.082031 381.207031 "/>
<path style=" stroke:none;fill-rule:nonzero;fill:rgb(28.235295%,25.490198%,22.352941%);fill-opacity:1;" d="M 548.605469 855.234375 C 539.917969 857.582031 531.121094 859.65625 522.238281 861.46875 C 488.515625 800.316406 450.996094 742.171875 410.476562 687.917969 C 354.234375 612.738281 330.222656 596.816406 303.136719 592.585938 C 270.257812 587.445312 238.03125 603.316406 168.335938 639.625 C 139.628906 654.5625 111.574219 671.132812 84.628906 688.9375 C 79.613281 681.914062 74.773438 674.714844 70.207031 667.300781 L 70.207031 667.226562 C 97.867188 648.976562 126.714844 632.011719 156.195312 616.609375 C 225.941406 580.226562 264.378906 560.148438 307.164062 566.828125 C 346.5 573.007812 375.546875 597.691406 431.390625 672.351562 C 474 729.472656 513.335938 790.75 548.566406 855.199219 Z M 548.605469 855.234375 "/>
<path style=" stroke:none;fill-rule:nonzero;fill:rgb(28.235295%,25.490198%,22.352941%);fill-opacity:1;" d="M 476.769531 868.167969 C 467.308594 869.078125 457.777344 869.652344 448.191406 869.921875 C 422.164062 822.9375 391.824219 779.609375 357.5625 740.613281 C 306.339844 682.203125 281.949219 673.425781 263.210938 672.636719 C 241.410156 671.722656 216.753906 683.742188 162.992188 711.238281 C 148.964844 718.386719 135.0625 725.925781 121.375 733.84375 C 115.3125 727.414062 109.433594 720.714844 103.820312 713.890625 C 119.34375 704.859375 135.207031 696.210938 151.125 688.09375 C 205.007812 660.546875 234.703125 645.410156 264.324219 646.648438 C 292.707031 647.882812 322.722656 661.386719 377.203125 723.453125 C 415.296875 766.925781 448.710938 815.398438 476.769531 868.167969 Z M 476.769531 868.167969 "/>
<path style=" stroke:none;fill-rule:nonzero;fill:rgb(28.235295%,25.490198%,22.352941%);fill-opacity:1;" d="M 385.816406 867.179688 C 372.902344 865.75 360.117188 863.671875 347.578125 861 C 324.738281 834.167969 299.304688 811.097656 271.5 792.058594 C 237.238281 768.59375 219.628906 764.902344 205.671875 764.3125 C 189.683594 763.71875 175.277344 767.304688 162.867188 772.621094 C 155.621094 766.710938 148.515625 760.53125 141.664062 754.101562 C 159.34375 744.609375 181.394531 737.40625 206.714844 738.375 C 223.75 739.019531 246.519531 743.371094 286.320312 770.671875 C 323.710938 796.265625 357.039062 828.632812 385.816406 867.164062 Z M 385.816406 867.179688 "/>
</g>
</svg>
